<svg width="69" height="65" viewBox="0 0 69 65" fill="none" xmlns="http://www.w3.org/2000/svg">
<path d="M33.725 0.807007L0.208984 20.976L28.422 37.259L33.725 0.807007Z" fill="black"/>
<path d="M50.315 64.112L65.153 27.822L29.618 38.286L50.315 64.112Z" fill="black"/>
<path d="M59.073 3.73709L35.89 0.569092L65.097 25.6891L59.073 3.73709Z" fill="black"/>
<path d="M64.994 26.868L34.694 0.807007L29.377 37.356L64.994 26.868Z" fill="black"/>
<path d="M18.432 0L1.68402 18.967L32.677 0.316999L18.432 0Z" fill="black"/>
<path d="M28.059 38.1591L0 21.9651L9.459 60.2481L28.059 38.1591Z" fill="black"/>
<path d="M68.888 43.423L65.826 28.713L51.969 62.601L68.888 43.423Z" fill="black"/>
<path d="M34.378 64.211L36.557 64.26L30.983 63.75L34.378 64.211Z" fill="black"/>
<path d="M10.179 60.8841L49.37 64.4661L28.786 38.7841L10.179 60.8841Z" fill="black"/>
</svg>
