<svg width="77" height="79" viewBox="0 0 77 79" fill="none" xmlns="http://www.w3.org/2000/svg">
<path d="M40.833 0.796997L34.801 1.345L39.928 1.712L40.833 0.796997Z" fill="black"/>
<path d="M42.236 0.744019L41.155 1.83502L48.223 2.59002L42.236 0.744019Z" fill="black"/>
<path d="M60.146 10.623L53.139 4.271L50.319 7.382L60.146 10.623Z" fill="black"/>
<path d="M49.374 6.99695L52.117 3.97195L42.316 2.92395L49.374 6.99695Z" fill="black"/>
<path d="M63.442 9.753L56.388 5.922L62.121 11.12L63.442 9.753Z" fill="black"/>
<path d="M19.234 13.441L29.782 12.771L28.065 6.48303L19.234 13.441Z" fill="black"/>
<path d="M28.2739 2.24805L19.825 6.64405L27.9039 5.24405L28.2739 2.24805Z" fill="black"/>
<path d="M16.43 15.063L8.28796 18.372L9.96496 24.517L16.43 15.063Z" fill="black"/>
<path d="M8.724 14.099L8.396 16.58L13.728 10.494L8.724 14.099Z" fill="black"/>
<path d="M9.20196 25.3659L7.60996 19.5389L4.18396 27.5069L9.20196 25.3659Z" fill="black"/>
<path d="M19.113 5.87394L19.012 5.98494L19.629 5.66394L19.113 5.87394Z" fill="black"/>
<path d="M68.952 16.734L64.178 10.371L62.851 11.747L68.952 16.734Z" fill="black"/>
<path d="M26.549 6.45398L17.4 8.03898L18.088 13.122L26.549 6.45398Z" fill="black"/>
<path d="M17.2 13.716L16.528 8.75403L9.40698 16.882L17.2 13.716Z" fill="black"/>
<path d="M54.896 65.638L45.046 62.972L45.413 71.354L54.896 65.638Z" fill="black"/>
<path d="M7.485 16.1479L4.729 20.8949L7.256 17.8869L7.485 16.1479Z" fill="black"/>
<path d="M55.377 66.469L46.614 71.751L54.079 71.972L55.377 66.469Z" fill="black"/>
<path d="M56.473 66.006L55.188 71.449L62.647 66.866L56.473 66.006Z" fill="black"/>
<path d="M55.02 53.866L43.901 50.286L44.936 61.438L55.02 53.866Z" fill="black"/>
<path d="M32.718 57.089V67.269L43.42 62.325L32.718 57.089Z" fill="black"/>
<path d="M44.09 63.074L33.548 67.943L44.459 71.511L44.09 63.074Z" fill="black"/>
<path d="M33.479 75.369L43.412 72.177L32.791 68.705L33.479 75.369Z" fill="black"/>
<path d="M73.9 30.142L71.461 20.589L68.682 23.641L73.9 30.142Z" fill="black"/>
<path d="M68.85 25.382L70.344 33.809L74.159 31.996L68.85 25.382Z" fill="black"/>
<path d="M68.166 22.7789L71.01 19.6569L63.572 13.575L68.166 22.7789Z" fill="black"/>
<path d="M69.87 35.714L65.976 42.812L72.475 43.686L69.87 35.714Z" fill="black"/>
<path d="M72.395 44.644L65.753 43.751L66.756 54.369L72.395 44.644Z" fill="black"/>
<path d="M65.613 57.308L57.175 65.133L63.665 66.039L65.613 57.308Z" fill="black"/>
<path d="M56.533 54.288L56.582 64.374L65.414 56.184L56.533 54.288Z" fill="black"/>
<path d="M64.846 44.351L56.949 53.395L65.88 55.301L64.846 44.351Z" fill="black"/>
<path d="M45.565 72.679L46.406 76.659L52.784 72.894L45.565 72.679Z" fill="black"/>
<path d="M55.49 72.391L57.713 73.36L61.766 68.535L55.49 72.391Z" fill="black"/>
<path d="M61.23 70.665L66.478 66.525L64.3 67.009L61.23 70.665Z" fill="black"/>
<path d="M68.096 65.183L71.026 59.166L65.341 65.794L68.096 65.183Z" fill="black"/>
<path d="M64.925 64.804L72.063 56.482L66.802 56.395L64.925 64.804Z" fill="black"/>
<path d="M39.22 37.2309L28.017 36.2L32.877 44.636L39.22 37.2309Z" fill="black"/>
<path d="M47.823 77.5011L48.742 77.1281L47.662 77.4461L47.823 77.5011Z" fill="black"/>
<path d="M49.65 75.859L56.449 73.856L54.489 73.001L49.65 75.859Z" fill="black"/>
<path d="M35.36 75.772L45.468 76.864L44.609 72.802L35.36 75.772Z" fill="black"/>
<path d="M73.743 43.644L76.959 42.925L75.026 34.741L73.743 43.644Z" fill="black"/>
<path d="M70.568 34.7671L72.987 42.1641L74.311 32.9871L70.568 34.7671Z" fill="black"/>
<path d="M72.617 55.53L72.677 46.067L67.244 55.44L72.617 55.53Z" fill="black"/>
<path d="M73.593 53.132L76.799 43.944L73.646 44.648L73.593 53.132Z" fill="black"/>
<path d="M74.736 53.716L75.31 51.129L74.231 54.216L74.736 53.716Z" fill="black"/>
<path d="M25.887 75.974L33.678 78.426L32.75 76.466L25.887 75.974Z" fill="black"/>
<path d="M0.717041 50.022L4.12104 57.075L2.56804 50.488L0.717041 50.022Z" fill="black"/>
<path d="M0.267944 41.481L0.314944 48.932L2.30295 49.433L0.267944 41.481Z" fill="black"/>
<path d="M4.021 52.468L5.976 60.759L9.787 60.827L4.021 52.468Z" fill="black"/>
<path d="M3.09196 30.222L0.454956 37.102L4.29096 37.172L3.09196 30.222Z" fill="black"/>
<path d="M1.80303 26.876L0.858032 33.369L2.73803 28.464L1.80303 26.876Z" fill="black"/>
<path d="M10.3669 61.8L6.79395 61.734L12.1199 66.943L10.3669 61.8Z" fill="black"/>
<path d="M4.30501 38.133L0.38501 38.062L2.85001 47.69L4.30501 38.133Z" fill="black"/>
<path d="M13.165 69.627L15.295 70.86L13.335 69.38L13.165 69.627Z" fill="black"/>
<path d="M20.848 61.062L21.182 69.404L30.958 67.749L20.848 61.062Z" fill="black"/>
<path d="M12.4449 68.979L12.6009 68.754L11.0229 67.212L12.4449 68.979Z" fill="black"/>
<path d="M5.98396 20.894L2.11096 25.506L3.20196 27.36L5.98396 20.894Z" fill="black"/>
<path d="M21.3979 70.833L22.227 74.747L30.629 75.351L21.3979 70.833Z" fill="black"/>
<path d="M15.084 69.4969L21.096 74.0429L20.323 70.3879L15.084 69.4969Z" fill="black"/>
<path d="M34.861 78.6841L42.415 77.5001L33.863 76.576L34.861 78.6841Z" fill="black"/>
<path d="M29.283 1.91296L28.903 4.99096L37.421 2.49496L29.283 1.91296Z" fill="black"/>
<path d="M32.496 75.196L31.813 68.578L22.275 70.193L32.496 75.196Z" fill="black"/>
<path d="M34.974 25.047L27.995 35.235L39.451 36.288L34.974 25.047Z" fill="black"/>
<path d="M15.3149 35.9099L26.3899 35.2039L21.3039 24.8359L15.3149 35.9099Z" fill="black"/>
<path d="M49.086 27.298L41.07 36.554L52.969 39.362L49.086 27.298Z" fill="black"/>
<path d="M34.188 24.496L22.1021 24.282L27.2071 34.688L34.188 24.496Z" fill="black"/>
<path d="M11.436 48.938L21.381 47.342L14.664 37.559L11.436 48.938Z" fill="black"/>
<path d="M26.402 36.167L15.356 36.87L22.099 46.688L26.402 36.167Z" fill="black"/>
<path d="M31.6899 12.8499L42.4649 13.8389L38.2439 7.96594L31.6899 12.8499Z" fill="black"/>
<path d="M42.666 48.8201L39.945 37.8571L33.603 45.2631L42.666 48.8201Z" fill="black"/>
<path d="M32.764 55.44L42.275 49.698L33.245 46.153L32.764 55.44Z" fill="black"/>
<path d="M36.017 23.696L48.444 25.716L43.355 15.274L36.017 23.696Z" fill="black"/>
<path d="M40.342 35.927L48.355 26.673L35.848 24.642L40.342 35.927Z" fill="black"/>
<path d="M61.209 30.643L50.024 27.079L53.885 39.068L61.209 30.643Z" fill="black"/>
<path d="M56.793 18.507L50.125 26.104L61.228 29.642L56.793 18.507Z" fill="black"/>
<path d="M49.396 25.479L56.062 17.884L44.344 15.114L49.396 25.479Z" fill="black"/>
<path d="M76.787 38.02L76.44 31.252L75.439 32.312L76.787 38.02Z" fill="black"/>
<path d="M32.288 46.062L23.256 47.964L31.809 55.317L32.288 46.062Z" fill="black"/>
<path d="M42.948 50.4141L33.24 56.2741L43.98 61.5301L42.948 50.4141Z" fill="black"/>
<path d="M76.285 30.021L73.317 23.978L75.162 31.206L76.285 30.021Z" fill="black"/>
<path d="M22.994 47.038L32.054 45.1301L27.21 36.7271L22.994 47.038Z" fill="black"/>
<path d="M35.226 23.143L42.49 14.806L31.163 13.765L35.226 23.143Z" fill="black"/>
<path d="M5.05101 35.9329L8.88901 26.5439L3.80701 28.7119L5.05101 35.9329Z" fill="black"/>
<path d="M10.02 49.104L5.10796 39.235L3.53296 49.571L10.02 49.104Z" fill="black"/>
<path d="M5.61694 37.084L13.7859 36.05L9.78894 26.877L5.61694 37.084Z" fill="black"/>
<path d="M34.351 23.538L30.264 14.108L22.355 23.325L34.351 23.538Z" fill="black"/>
<path d="M14.528 35.35L20.44 24.416L10.462 26.02L14.528 35.35Z" fill="black"/>
<path d="M21.492 22.855L29.294 13.765L18.397 14.458L21.492 22.855Z" fill="black"/>
<path d="M10.802 24.994L20.674 23.407L17.596 15.058L10.802 24.994Z" fill="black"/>
<path d="M10.2859 50.049L3.84094 50.513L10.2389 59.7939L10.2859 50.049Z" fill="black"/>
<path d="M22.552 48.625L20.921 59.45L31.274 56.125L22.552 48.625Z" fill="black"/>
<path d="M11.715 49.866L20.008 59.068L21.635 48.272L11.715 49.866Z" fill="black"/>
<path d="M40.844 37.486L43.627 48.701L52.701 40.286L40.844 37.486Z" fill="black"/>
<path d="M13.821 37.012L5.59399 38.054L10.646 48.206L13.821 37.012Z" fill="black"/>
<path d="M13.587 68.2689L19.107 69.2079L11.738 62.8459L13.587 68.2689Z" fill="black"/>
<path d="M11.2429 50.775L11.1949 60.782L19.3569 59.78L11.2429 50.775Z" fill="black"/>
<path d="M19.873 60.6851L11.847 61.6701L20.201 68.8831L19.873 60.6851Z" fill="black"/>
<path d="M31.757 56.978L21.431 60.296L31.757 67.125V56.978Z" fill="black"/>
<path d="M69.324 34.714L62.771 31.321L65.39 41.886L69.324 34.714Z" fill="black"/>
<path d="M62.208 29.5031L67.291 23.7531L57.888 18.6541L62.208 29.5031Z" fill="black"/>
<path d="M67.751 24.683L62.817 30.264L69.339 33.64L67.751 24.683Z" fill="black"/>
<path d="M61.807 31.4189L54.55 39.7649L64.556 42.5139L61.807 31.4189Z" fill="black"/>
<path d="M55.622 64.841L55.574 54.653L45.612 62.132L55.622 64.841Z" fill="black"/>
<path d="M53.365 40.979L44.284 49.4L55.441 52.993L53.365 40.979Z" fill="black"/>
<path d="M64.354 43.454L54.29 40.688L56.353 52.618L64.354 43.454Z" fill="black"/>
<path d="M57.712 17.468L66.941 22.472L62.03 12.634L57.712 17.468Z" fill="black"/>
<path d="M39.018 6.82696L47.583 7.07196L40.375 2.91296L39.018 6.82696Z" fill="black"/>
<path d="M38.029 6.74996L39.354 2.92896L30.501 5.52295L38.029 6.74996Z" fill="black"/>
<path d="M30.6779 12.408L37.1559 7.58L28.9969 6.25L30.6779 12.408Z" fill="black"/>
<path d="M43.508 13.644L48.433 8.05702L39.307 7.79602L43.508 13.644Z" fill="black"/>
<path d="M56.982 16.844L61.298 12.015L50.768 8.54102L56.982 16.844Z" fill="black"/>
<path d="M44.358 14.1299L55.773 16.8279L49.438 8.36694L44.358 14.1299Z" fill="black"/>
</svg>
